<svg xmlns="http://www.w3.org/2000/svg" viewBox="0 0 64 64" role="img" aria-label="tarvelwithus">
  <defs>
    <linearGradient id="tw-sun-f" x1="0" y1="0" x2="0" y2="1">
      <stop offset="0%" stop-color="#FBCB6B"/>
      <stop offset="100%" stop-color="#F5A93F"/>
    </linearGradient>
    <linearGradient id="tw-water-f" x1="0" y1="0" x2="0" y2="1">
      <stop offset="0%" stop-color="#4FA3D1"/>
      <stop offset="100%" stop-color="#1C5E91"/>
    </linearGradient>
    <clipPath id="tw-circle-clip-f">
      <circle cx="32" cy="33" r="25"/>
    </clipPath>
  </defs>

  <circle cx="32" cy="33" r="27" fill="none" stroke="#0B2545" stroke-width="1.5" stroke-dasharray="148 22" stroke-dashoffset="54"/>

  <g clip-path="url(#tw-circle-clip-f)">
    <rect x="5" y="6" width="54" height="54" fill="#EAF6FE"/>
    <circle cx="24" cy="34" r="10" fill="url(#tw-sun-f)"/>
    <ellipse cx="43" cy="22" rx="5" ry="1.8" fill="#FBCB6B" opacity="0.65"/>
    <ellipse cx="49" cy="26" rx="3.4" ry="1.4" fill="#FBCB6B" opacity="0.5"/>
    <polygon points="29,52 39,29 46,43 51,33 58,52" fill="#0B2545"/>
    <path d="M4,51 C13,44 20,49 28,44 C36,39 45,47 60,41 L60,60 L4,60 Z" fill="url(#tw-water-f)"/>
    <path d="M5,49.5 C15,45.5 21,48.5 29,44.5" stroke="#8FD3F4" stroke-width="1.1" fill="none" opacity="0.85"/>
    <g stroke="#0B2545" stroke-width="1.3" fill="none" stroke-linecap="round">
      <path d="M13,53 C13,45 14.5,39 14.5,39"/>
      <path d="M14.5,39 C14.5,39 10.5,37 7,38"/>
      <path d="M14.5,39 C14.5,39 10.5,35 6.5,36"/>
      <path d="M14.5,39 C14.5,39 18.5,34.5 22,35.5"/>
      <path d="M14.5,39 C14.5,39 19,37 21,40"/>
    </g>
    <g stroke="#0B2545" stroke-width="1" fill="none" stroke-linecap="round">
      <path d="M37,16 q2,-3 4,0 q2,-3 4,0"/>
      <path d="M44,20 q1.6,-2.4 3.2,0 q1.6,-2.4 3.2,0"/>
    </g>
  </g>

  <path d="M13,54 C9,40 13,19 29,9 C37,4 45,5 51,9" fill="none" stroke="#0B2545" stroke-width="1.4" stroke-linecap="round"/>
  <g transform="translate(49,8) rotate(38)">
    <path d="M-2,0 L13,3.6 L7.5,5.6 L7.5,9.4 L4.8,8.2 L2.8,9.4 L2.8,6 L-4,4.4 Z" fill="#0B2545"/>
  </g>
</svg>
